Coordinates
version=1
nRows=6
nColumns=34
inDegrees=yes

Units are S.I. units (second, meters, Newtons, ...)
If the header above contains a line with 'inDegrees', this indicates whether rotational values are in degrees (yes) or radians (no).

endheader
time	pelvis_tilt	pelvis_list	pelvis_rotation	pelvis_tx	pelvis_ty	pelvis_tz	hip_flexion_r	hip_adduction_r	hip_rotation_r	knee_angle_r	ankle_angle_r	subtalar_angle_r	mtp_angle_r	hip_flexion_l	hip_adduction_l	hip_rotation_l	knee_angle_l	ankle_angle_l	subtalar_angle_l	mtp_angle_l	lumbar_extension	lumbar_bending	lumbar_rotation	arm_flex_r	arm_add_r	arm_rot_r	elbow_flex_r	pro_sup_r	arm_flex_l	arm_add_l	arm_rot_l	elbow_flex_l	pro_sup_l
      3.35000000	    -38.40661751	     -4.05249040	      4.48415855	      0.81191152	      0.62196426	     -0.06370753	    117.26079664	    -15.77765017	     -1.53930084	    106.41416802	     26.56003739	    -35.00000000	      0.00000000	    119.40483222	     -9.25666927	      8.28608498	    108.40500196	     23.35535323	    -19.04918351	      0.00000000	    -35.53641671	      3.70963867	     -6.94025997	    123.08757518	    -13.36416185	     33.31394081	     39.40108765	     71.09905631	    -50.22233377	   -166.97139078	   -122.57804141	     21.11053854	     37.09682827
      3.36666670	    -38.63538204	     -3.55158549	      4.60046777	      0.81882857	      0.63814549	     -0.06766755	    115.65702195	    -15.00671894	     -1.05877268	    103.87678982	     25.86704289	    -35.00000000	      0.00000000	    116.67727286	     -9.29599197	      7.25390896	    105.84641070	     24.19430600	    -19.26622511	      0.00000000	    -34.90313700	      3.22626982	     -6.75560489	    123.54816859	    -15.03690858	     36.01788330	     39.14998835	     71.91854748	    -51.83517236	   -165.84364698	   -121.12881892	     21.88455530	     36.75460850
      3.38333330	    -39.31254874	     -2.72464999	      4.50693453	      0.83482761	      0.67404299	     -0.07582246	    113.14002240	    -14.44234618	     -0.50277973	    100.77701346	     24.88058164	    -35.00000000	      0.00000000	    113.12359142	     -9.53758314	      5.27020953	    102.43153334	     24.37481735	    -20.53228338	      0.00000000	    -33.68279758	      2.41679007	     -6.86088520	    121.76833873	    -16.94387871	     36.29981860	     39.92769544	     72.10666579	    -55.04718156	   -165.06714155	   -120.93514178	     22.68820273	     36.63425454
      3.40000000	    -39.54435280	     -1.78594345	      4.38351772	      0.84135201	      0.69479124	     -0.06974536	    110.26191530	    -13.90170752	      0.08903449	     97.97431616	     24.64102457	    -35.00000000	      0.00000000	    109.46049529	    -10.00651645	      3.35487501	     99.19801054	     25.12349581	    -21.23992587	      0.00000000	    -32.58684314	      1.39525228	     -7.08352039	    119.39160181	    -18.82366889	     37.06133896	     41.10101393	     72.44478719	    -58.78561914	   -163.58369235	   -120.91516021	     23.30459856	     36.60166614
      3.41666670	    -39.60781945	     -0.93204644	      3.99387251	      0.82508689	      0.70616101	     -0.06053999	    108.11450834	    -13.10349221	      0.27770747	     95.50702554	     24.07153213	    -35.00000000	      0.00000000	    106.82890964	    -10.32221992	      2.17737013	     96.35549292	     24.82949201	    -22.60194997	      0.00000000	    -31.73078957	      0.26317643	     -7.07123692	    118.40849129	    -20.79533978	     37.62013556	     42.93508876	     72.84827089	    -61.05836347	   -161.98979155	   -121.40914523	     24.56209330	     36.74170882
      3.43333330	    -39.41439999	     -0.13733238	      3.36309909	      0.83284995	      0.74065953	     -0.07084781	    105.34733372	    -12.60310094	      0.24888025	     92.59516385	     23.29352910	    -35.00000000	      0.00000000	    103.80404211	    -10.65765529	      0.82111218	     93.02634193	     23.65789844	    -24.09217042	      0.00000000	    -31.38280364	     -0.55233410	     -6.99344492	    116.88570098	    -22.60895510	     37.96997611	     44.27429278	     73.17027235	    -63.71761738	   -160.59756883	   -121.86949550	     24.86077282	     36.88032847
